ffmpeg version 3.4.8-0ubuntu0.2 Copyright (c) 2000-2020 the FFmpeg developers
  built with gcc 7 (Ubuntu 7.5.0-3ubuntu1~18.04)
  configuration: --prefix=/usr --extra-version=0ubuntu0.2 --toolchain=hardened --libdir=/usr/lib/x86_64-linux-gnu --incdir=/usr/include/x86_64-linux-gnu --enable-gpl --disable-stripping --enable-avresample --enable-avisynth --enable-gnutls --enable-ladspa --enable-libass --enable-libbluray --enable-libbs2b --enable-libcaca --enable-libcdio --enable-libflite --enable-libfontconfig --enable-libfreetype --enable-libfribidi --enable-libgme --enable-libgsm --enable-libmp3lame --enable-libmysofa --enable-libopenjpeg --enable-libopenmpt --enable-libopus --enable-libpulse --enable-librubberband --enable-librsvg --enable-libshine --enable-libsnappy --enable-libsoxr --enable-libspeex --enable-libssh --enable-libtheora --enable-libtwolame --enable-libvorbis --enable-libvpx --enable-libwavpack --enable-libwebp --enable-libx265 --enable-libxml2 --enable-libxvid --enable-libzmq --enable-libzvbi --enable-omx --enable-openal --enable-opengl --enable-sdl2 --enable-libdc1394 --enable-libdrm --enable-libiec61883 --enable-chromaprint --enable-frei0r --enable-libopencv --enable-libx264 --enable-shared
  libavutil      55. 78.100 / 55. 78.100
  libavcodec     57.107.100 / 57.107.100
  libavformat    57. 83.100 / 57. 83.100
  libavdevice    57. 10.100 / 57. 10.100
  libavfilter     6.107.100 /  6.107.100
  libavresample   3.  7.  0 /  3.  7.  0
  libswscale      4.  8.100 /  4.  8.100
  libswresample   2.  9.100 /  2.  9.100
  libpostproc    54.  7.100 / 54.  7.100
[rawvideo @ 0x562d23104a20] Estimating duration from bitrate, this may be inaccurate
Input #0, rawvideo, from '../../SVC-Encoder-20220109T061506Z-001/SVC-Encoder/Dataset/RollerCoaster/ERP_8x8/tile_yuv/Tile_38_480x240.yuv':
  Duration: 00:00:10.00, start: 0.000000, bitrate: 41472 kb/s
    Stream #0:0: Video: rawvideo (I420 / 0x30323449), yuv420p, 480x240, 41472 kb/s, 30 tbr, 30 tbn, 30 tbc
Stream mapping:
  Stream #0:0 -> #0:0 (rawvideo (native) -> h264 (libx264))
Press [q] to stop, [?] for help
[libx264 @ 0x562d23111c60] using cpu capabilities: MMX2 SSE2Fast LZCNT SSSE3 SSE4.2 AVX
[libx264 @ 0x562d23111c60] profile High, level 2.1
Output #0, rawvideo, to 'RollerCoaster_Tile_38_480x240_x264_QP_28.h264':
  Metadata:
    encoder         : Lavf57.83.100
    Stream #0:0: Video: h264 (libx264), yuv420p, 480x240, q=-1--1, 30 fps, 30 tbn, 30 tbc
    Metadata:
      encoder         : Lavc57.107.100 libx264
    Side data:
      cpb: bitrate max/min/avg: 0/0/0 buffer size: 0 vbv_delay: -1
frame=  153 fps=0.0 q=34.0 PSNR=Y:nan U:nan V:nan *:nan size=      85kB time=00:00:03.66 bitrate= 190.6kbits/s speed=7.33x    frame=  300 fps=273 q=34.0 LPSNR=Y:inf U:inf V:inf *:inf size=     210kB time=00:00:09.93 bitrate= 172.8kbits/s speed=9.03x    
video:210kB audio:0kB subtitle:0kB other streams:0kB global headers:0kB muxing overhead: 0.000000%
[libx264 @ 0x562d23111c60] frame I:2     Avg QP:26.31  size: 13870  PSNR Mean Y:39.37 U:46.41 V:49.45 Avg:40.82 Global:40.69
[libx264 @ 0x562d23111c60] frame P:76    Avg QP:27.77  size:  1828  PSNR Mean Y:37.37 U:46.06 V:48.42 Avg:38.90 Global:38.86
[libx264 @ 0x562d23111c60] frame B:222   Avg QP:33.46  size:   216  PSNR Mean Y:37.26 U:46.12 V:48.52 Avg:38.80 Global:38.78
[libx264 @ 0x562d23111c60] consecutive B-frames:  1.0%  0.7%  1.0% 97.3%
[libx264 @ 0x562d23111c60] mb I  I16..4:  2.9% 89.9%  7.2%
[libx264 @ 0x562d23111c60] mb P  I16..4:  0.0%  0.5%  0.6%  P16..4: 46.5% 17.0%  7.1%  0.0%  0.0%    skip:28.1%
[libx264 @ 0x562d23111c60] mb B  I16..4:  0.0%  0.0%  0.0%  B16..8: 32.8%  1.0%  0.3%  direct: 0.1%  skip:65.8%  L0:31.0% L1:68.2% BI: 0.8%
[libx264 @ 0x562d23111c60] 8x8 transform intra:75.6% inter:63.9%
[libx264 @ 0x562d23111c60] coded y,uvDC,uvAC intra: 87.5% 74.4% 34.5% inter: 6.9% 3.4% 0.1%
[libx264 @ 0x562d23111c60] i16 v,h,dc,p:  6% 10% 58% 26%
[libx264 @ 0x562d23111c60] i8 v,h,dc,ddl,ddr,vr,hd,vl,hu:  7% 12% 19%  7% 10% 14%  8%  7% 15%
[libx264 @ 0x562d23111c60] i4 v,h,dc,ddl,ddr,vr,hd,vl,hu: 14%  7% 28%  3% 10% 26%  3%  2%  6%
[libx264 @ 0x562d23111c60] i8c dc,h,v,p: 54% 18% 19%  9%
[libx264 @ 0x562d23111c60] Weighted P-Frames: Y:1.3% UV:0.0%
[libx264 @ 0x562d23111c60] ref P L0: 63.3% 23.8% 10.2%  2.6%  0.0%
[libx264 @ 0x562d23111c60] ref B L0: 94.3%  5.3%  0.4%
[libx264 @ 0x562d23111c60] ref B L1: 95.6%  4.4%
[libx264 @ 0x562d23111c60] PSNR Mean Y:37.304 U:46.109 V:48.498 Avg:38.842 Global:38.810 kb/s:171.66
